<mxfile host="app.diagrams.net" agent="Mozilla/5.0 (X11; Linux x86_64) AppleWebKit/537.36 (KHTML, like Gecko) Chrome/131.0.0.0 Safari/537.36" version="26.0.4">
  <diagram name="Page-1" id="RZY51Ohhn1HjCGT7icH3">
    <mxGraphModel dx="3292" dy="2334" grid="1" gridSize="10" guides="1" tooltips="1" connect="1" arrows="1" fold="1" page="1" pageScale="1" pageWidth="850" pageHeight="1100" math="0" shadow="0">
      <root>
        <mxCell id="0" />
        <mxCell id="1" parent="0" />
        <mxCell id="hyjtwMe0WPxaoIsdSJ7K-11" value="&amp;lt;&amp;lt;Device&amp;gt;&amp;gt;&lt;div style=&quot;&quot;&gt;server&lt;/div&gt;" style="verticalAlign=top;align=center;spacingTop=8;spacingLeft=2;spacingRight=12;shape=cube;size=10;direction=south;fontStyle=4;html=1;whiteSpace=wrap;" vertex="1" parent="1">
          <mxGeometry x="220" y="70" width="1010" height="390" as="geometry" />
        </mxCell>
        <mxCell id="hyjtwMe0WPxaoIsdSJ7K-22" value="&amp;lt;&amp;lt;volumes&amp;gt;&amp;gt;&lt;div style=&quot;&quot;&gt;databases / conf / logs&lt;/div&gt;&lt;div style=&quot;&quot;&gt;&lt;span style=&quot;color: rgba(0, 0, 0, 0); font-family: monospace; font-size: 0px; text-align: start; text-wrap-mode: nowrap; background-color: transparent;&quot;&gt;s%3CmxGraphModel%3E%3Croot%3E%3CmxCell%20id%3D%220%22%2F%3E%3CmxCell%20id%3D%221%22%20parent%3D%220%22%2F%3E%3CmxCell%20id%3D%222%22%20value%3D%22%26amp%3Blt%3B%26amp%3Blt%3BV-Host%26amp%3Bgt%3B%26amp%3Bgt%3B%26lt%3Bdiv%20style%3D%26quot%3B%26quot%3B%26gt%3Bdocker%26lt%3B%2Fdiv%26gt%3B%22%20style%3D%22verticalAlign%3Dtop%3Balign%3Dcenter%3BspacingTop%3D8%3BspacingLeft%3D2%3BspacingRight%3D12%3Bshape%3Dcube%3Bsize%3D10%3Bdirection%3Dsouth%3BfontStyle%3D4%3Bhtml%3D1%3BwhiteSpace%3Dwrap%3B%22%20vertex%3D%221%22%20parent%3D%221%22%3E%3CmxGeometry%20x%3D%22470%22%20y%3D%22140%22%20width%3D%22510%22%20height%3D%22300%22%20as%3D%22geometry%22%2F%3E%3C%2FmxCell%3E%3C%2Froot%3E%3C%2FmxGraphModel%3E&lt;/span&gt;&lt;/div&gt;" style="verticalAlign=top;align=center;spacingTop=8;spacingLeft=2;spacingRight=12;shape=cube;size=10;direction=south;fontStyle=4;html=1;whiteSpace=wrap;" vertex="1" parent="1">
          <mxGeometry x="1030" y="360" width="150" height="60" as="geometry" />
        </mxCell>
        <mxCell id="hyjtwMe0WPxaoIsdSJ7K-24" value="" style="group" vertex="1" connectable="0" parent="1">
          <mxGeometry x="470" y="140" width="510" height="300" as="geometry" />
        </mxCell>
        <mxCell id="hyjtwMe0WPxaoIsdSJ7K-12" value="&amp;lt;&amp;lt;V-Host&amp;gt;&amp;gt;&lt;div style=&quot;&quot;&gt;docker&lt;/div&gt;" style="verticalAlign=top;align=center;spacingTop=8;spacingLeft=2;spacingRight=12;shape=cube;size=10;direction=south;fontStyle=4;html=1;whiteSpace=wrap;" vertex="1" parent="hyjtwMe0WPxaoIsdSJ7K-24">
          <mxGeometry width="510" height="300" as="geometry" />
        </mxCell>
        <mxCell id="hyjtwMe0WPxaoIsdSJ7K-15" value="&amp;lt;&amp;lt;container&amp;gt;&amp;gt;&lt;div style=&quot;&quot;&gt;web server&lt;span style=&quot;color: rgba(0, 0, 0, 0); font-family: monospace; font-size: 0px; text-align: start; text-wrap-mode: nowrap; background-color: transparent;&quot;&gt;%3CmxGraphModel%3E%3Croot%3E%3CmxCell%20id%3D%220%22%2F%3E%3CmxCell%20id%3D%221%22%20parent%3D%220%22%2F%3E%3CmxCell%20id%3D%222%22%20value%3D%22%26amp%3Blt%3B%26amp%3Blt%3BV-Host%26amp%3Bgt%3B%26amp%3Bgt%3B%26lt%3Bdiv%20style%3D%26quot%3B%26quot%3B%26gt%3Bdocker%26lt%3B%2Fdiv%26gt%3B%22%20style%3D%22verticalAlign%3Dtop%3Balign%3Dcenter%3BspacingTop%3D8%3BspacingLeft%3D2%3BspacingRight%3D12%3Bshape%3Dcube%3Bsize%3D10%3Bdirection%3Dsouth%3BfontStyle%3D4%3Bhtml%3D1%3BwhiteSpace%3Dwrap%3B%22%20vertex%3D%221%22%20parent%3D%221%22%3E%3CmxGeometry%20x%3D%22470%22%20y%3D%22140%22%20width%3D%22510%22%20height%3D%22300%22%20as%3D%22geometry%22%2F%3E%3C%2FmxCell%3E%3C%2Froot%3E%3C%2FmxGraphModel%3E&lt;/span&gt;&lt;span style=&quot;color: rgba(0, 0, 0, 0); font-family: monospace; font-size: 0px; text-align: start; text-wrap-mode: nowrap; background-color: transparent;&quot;&gt;%3CmxGraphModel%3E%3Croot%3E%3CmxCell%20id%3D%220%22%2F%3E%3CmxCell%20id%3D%221%22%20parent%3D%220%22%2F%3E%3CmxCell%20id%3D%222%22%20value%3D%22%26amp%3Blt%3B%26amp%3Blt%3Bcontainer%26amp%3Bgt%3B%26amp%3Bgt%3B%26lt%3Bdiv%20style%3D%26quot%3B%26quot%3B%26gt%3Bweb%20server%26lt%3Bspan%20style%3D%26quot%3Bcolor%3A%20rgba(0%2C%200%2C%200%2C%200)%3B%20font-family%3A%20monospace%3B%20font-size%3A%200px%3B%20text-align%3A%20start%3B%20text-wrap-mode%3A%20nowrap%3B%20background-color%3A%20transparent%3B%26quot%3B%26gt%3B%253CmxGraphModel%253E%253Croot%253E%253CmxCell%2520id%253D%25220%2522%252F%253E%253CmxCell%2520id%253D%25221%2522%2520parent%253D%25220%2522%252F%253E%253CmxCell%2520id%253D%25222%2522%2520value%253D%2522%2526amp%253Blt%253B%2526amp%253Blt%253BV-Host%2526amp%253Bgt%253B%2526amp%253Bgt%253B%2526lt%253Bdiv%2520style%253D%2526quot%253B%2526quot%253B%2526gt%253Bdocker%2526lt%253B%252Fdiv%2526gt%253B%2522%2520style%253D%2522verticalAlign%253Dtop%253Balign%253Dcenter%253BspacingTop%253D8%253BspacingLeft%253D2%253BspacingRight%253D12%253Bshape%253Dcube%253Bsize%253D10%253Bdirection%253Dsouth%253BfontStyle%253D4%253Bhtml%253D1%253BwhiteSpace%253Dwrap%253B%2522%2520vertex%253D%25221%2522%2520parent%253D%25221%2522%253E%253CmxGeometry%2520x%253D%2522470%2522%2520y%253D%2522140%2522%2520width%253D%2522510%2522%2520height%253D%2522300%2522%2520as%253D%2522geometry%2522%252F%253E%253C%252FmxCell%253E%253C%252Froot%253E%253C%252FmxGraphModel%253E%26lt%3B%2Fspan%26gt%3B%26lt%3B%2Fdiv%26gt%3B%22%20style%3D%22verticalAlign%3Dtop%3Balign%3Dcenter%3BspacingTop%3D8%3BspacingLeft%3D2%3BspacingRight%3D12%3Bshape%3Dcube%3Bsize%3D10%3Bdirection%3Dsouth%3BfontStyle%3D4%3Bhtml%3D1%3BwhiteSpace%3Dwrap%3B%22%20vertex%3D%221%22%20parent%3D%221%22%3E%3CmxGeometry%20x%3D%22490%22%20y%3D%22200%22%20width%3D%22150%22%20height%3D%2260%22%20as%3D%22geometry%22%2F%3E%3C%2FmxCell%3E%3C%2Froot%3E%3C%2FmxGraphModel%3E&lt;/span&gt;&lt;/div&gt;" style="verticalAlign=top;align=center;spacingTop=8;spacingLeft=2;spacingRight=12;shape=cube;size=10;direction=south;fontStyle=4;html=1;whiteSpace=wrap;" vertex="1" parent="hyjtwMe0WPxaoIsdSJ7K-24">
          <mxGeometry x="20" y="60" width="150" height="60" as="geometry" />
        </mxCell>
        <mxCell id="hyjtwMe0WPxaoIsdSJ7K-16" value="&amp;lt;&amp;lt;container&amp;gt;&amp;gt;&lt;div style=&quot;&quot;&gt;ollama server&lt;span style=&quot;color: rgba(0, 0, 0, 0); font-family: monospace; font-size: 0px; text-align: start; text-wrap-mode: nowrap; background-color: transparent;&quot;&gt;%3CmxGraphModel%3E%3Croot%3E%3CmxCell%20id%3D%220%22%2F%3E%3CmxCell%20id%3D%221%22%20parent%3D%220%22%2F%3E%3CmxCell%20id%3D%222%22%20value%3D%22%26amp%3Blt%3B%26amp%3Blt%3BV-Host%26amp%3Bgt%3B%26amp%3Bgt%3B%26lt%3Bdiv%20style%3D%26quot%3B%26quot%3B%26gt%3Bdocker%26lt%3B%2Fdiv%26gt%3B%22%20style%3D%22verticalAlign%3Dtop%3Balign%3Dcenter%3BspacingTop%3D8%3BspacingLeft%3D2%3BspacingRight%3D12%3Bshape%3Dcube%3Bsize%3D10%3Bdirection%3Dsouth%3BfontStyle%3D4%3Bhtml%3D1%3BwhiteSpace%3Dwrap%3B%22%20vertex%3D%221%22%20parent%3D%221%22%3E%3CmxGeometry%20x%3D%22470%22%20y%3D%22140%22%20width%3D%22510%22%20height%3D%22300%22%20as%3D%22geometry%22%2F%3E%3C%2FmxCell%3E%3C%2Froot%3E%3C%2FmxGraphModel%3E&lt;/span&gt;&lt;/div&gt;" style="verticalAlign=top;align=center;spacingTop=8;spacingLeft=2;spacingRight=12;shape=cube;size=10;direction=south;fontStyle=4;html=1;whiteSpace=wrap;" vertex="1" parent="hyjtwMe0WPxaoIsdSJ7K-24">
          <mxGeometry x="280" y="60" width="150" height="60" as="geometry" />
        </mxCell>
        <mxCell id="hyjtwMe0WPxaoIsdSJ7K-17" value="&amp;lt;&amp;lt;container&amp;gt;&amp;gt;&lt;div style=&quot;text-align: center;&quot;&gt;&lt;span style=&quot;text-align: start; background-color: transparent;&quot;&gt;&lt;font style=&quot;color: rgb(0, 0, 0);&quot;&gt;vector db&lt;/font&gt;&lt;/span&gt;&lt;/div&gt;&lt;div style=&quot;text-align: center;&quot;&gt;&lt;span style=&quot;color: rgba(0, 0, 0, 0); font-family: monospace; font-size: 0px; text-align: start; text-wrap-mode: nowrap; background-color: transparent;&quot;&gt;%3CmxGraphModel%3E%3Croot%3E%3CmxCell%20id%3D%220%22%2F%3E%3CmxCell%20id%3D%221%22%20parent%3D%220%22%2F%3E%3CmxCell%20id%3D%222%22%20value%3D%22%26amp%3Blt%3B%26amp%3Blt%3BV-Host%26amp%3Bgt%3B%26amp%3Bgt%3B%26lt%3Bdiv%20style%3D%26quot%3B%26quot%3B%26gt%3Bdocker%26lt%3B%2Fdiv%26gt%3B%22%20style%3D%22verticalAlign%3Dtop%3Balign%3Dcenter%3BspacingTop%3D8%3BspacingLeft%3D2%3BspacingRight%3D12%3Bshape%3Dcube%3Bsize%3D10%3Bdirection%3Dsouth%3BfontStyle%3D4%3Bhtml%3D1%3BwhiteSpace%3Dwrap%3B%22%20vertex%3D%221%22%20parent%3D%221%22%3E%3CmxGeometry%20x%3D%22470%22%20y%3D%22140%22%20width%3D%22510%22%20height%3D%22300%22%20as%3D%22geometry%22%2F%3E%3C%2FmxCell%3E%3C%2Froot%3E%3C%2FmxGraphModel%3E&lt;/span&gt;&lt;/div&gt;" style="verticalAlign=top;align=center;spacingTop=8;spacingLeft=2;spacingRight=12;shape=cube;size=10;direction=south;fontStyle=4;html=1;whiteSpace=wrap;" vertex="1" parent="hyjtwMe0WPxaoIsdSJ7K-24">
          <mxGeometry x="20" y="140" width="150" height="60" as="geometry" />
        </mxCell>
        <mxCell id="hyjtwMe0WPxaoIsdSJ7K-19" value="&amp;lt;&amp;lt;container&amp;gt;&amp;gt;&lt;div style=&quot;&quot;&gt;relational db&lt;/div&gt;&lt;div style=&quot;text-align: center;&quot;&gt;&lt;span style=&quot;color: rgba(0, 0, 0, 0); font-family: monospace; font-size: 0px; text-align: start; text-wrap-mode: nowrap; background-color: transparent;&quot;&gt;%3CmxGraphModel%3E%3Croot%3E%3CmxCell%20id%3D%220%22%2F%3E%3CmxCell%20id%3D%221%22%20parent%3D%220%22%2F%3E%3CmxCell%20id%3D%222%22%20value%3D%22%26amp%3Blt%3B%26amp%3Blt%3BV-Host%26amp%3Bgt%3B%26amp%3Bgt%3B%26lt%3Bdiv%20style%3D%26quot%3B%26quot%3B%26gt%3Bdocker%26lt%3B%2Fdiv%26gt%3B%22%20style%3D%22verticalAlign%3Dtop%3Balign%3Dcenter%3BspacingTop%3D8%3BspacingLeft%3D2%3BspacingRight%3D12%3Bshape%3Dcube%3Bsize%3D10%3Bdirection%3Dsouth%3BfontStyle%3D4%3Bhtml%3D1%3BwhiteSpace%3Dwrap%3B%22%20vertex%3D%221%22%20parent%3D%221%22%3E%3CmxGeometry%20x%3D%22470%22%20y%3D%22140%22%20width%3D%22510%22%20height%3D%22300%22%20as%3D%22geometry%22%2F%3E%3C%2FmxCell%3E%3C%2Froot%3E%3C%2FmxGraphModel%3E&lt;/span&gt;&lt;/div&gt;" style="verticalAlign=top;align=center;spacingTop=8;spacingLeft=2;spacingRight=12;shape=cube;size=10;direction=south;fontStyle=4;html=1;whiteSpace=wrap;" vertex="1" parent="hyjtwMe0WPxaoIsdSJ7K-24">
          <mxGeometry x="280" y="140" width="150" height="60" as="geometry" />
        </mxCell>
        <mxCell id="hyjtwMe0WPxaoIsdSJ7K-20" value="&amp;lt;&amp;lt;container&amp;gt;&amp;gt;&lt;div style=&quot;&quot;&gt;cache db&lt;/div&gt;&lt;div style=&quot;text-align: center;&quot;&gt;&lt;span style=&quot;color: rgba(0, 0, 0, 0); font-family: monospace; font-size: 0px; text-align: start; text-wrap-mode: nowrap; background-color: transparent;&quot;&gt;%3CmxGraphModel%3E%3Croot%3E%3CmxCell%20id%3D%220%22%2F%3E%3CmxCell%20id%3D%221%22%20parent%3D%220%22%2F%3E%3CmxCell%20id%3D%222%22%20value%3D%22%26amp%3Blt%3B%26amp%3Blt%3BV-Host%26amp%3Bgt%3B%26amp%3Bgt%3B%26lt%3Bdiv%20style%3D%26quot%3B%26quot%3B%26gt%3Bdocker%26lt%3B%2Fdiv%26gt%3B%22%20style%3D%22verticalAlign%3Dtop%3Balign%3Dcenter%3BspacingTop%3D8%3BspacingLeft%3D2%3BspacingRight%3D12%3Bshape%3Dcube%3Bsize%3D10%3Bdirection%3Dsouth%3BfontStyle%3D4%3Bhtml%3D1%3BwhiteSpace%3Dwrap%3B%22%20vertex%3D%221%22%20parent%3D%221%22%3E%3CmxGeometry%20x%3D%22470%22%20y%3D%22140%22%20width%3D%22510%22%20height%3D%22300%22%20as%3D%22geometry%22%2F%3E%3C%2FmxCell%3E%3C%2Froot%3E%3C%2FmxGraphModel%3E&lt;/span&gt;&lt;/div&gt;" style="verticalAlign=top;align=center;spacingTop=8;spacingLeft=2;spacingRight=12;shape=cube;size=10;direction=south;fontStyle=4;html=1;whiteSpace=wrap;" vertex="1" parent="hyjtwMe0WPxaoIsdSJ7K-24">
          <mxGeometry x="280" y="220" width="150" height="60" as="geometry" />
        </mxCell>
        <mxCell id="hyjtwMe0WPxaoIsdSJ7K-21" value="&amp;lt;&amp;lt;container&amp;gt;&amp;gt;&lt;div style=&quot;&quot;&gt;django admin&lt;/div&gt;&lt;div style=&quot;text-align: center;&quot;&gt;&lt;span style=&quot;color: rgba(0, 0, 0, 0); font-family: monospace; font-size: 0px; text-align: start; text-wrap-mode: nowrap; background-color: transparent;&quot;&gt;%3CmxGraphModel%3E%3Croot%3E%3CmxCell%20id%3D%220%22%2F%3E%3CmxCell%20id%3D%221%22%20parent%3D%220%22%2F%3E%3CmxCell%20id%3D%222%22%20value%3D%22%26amp%3Blt%3B%26amp%3Blt%3BV-Host%26amp%3Bgt%3B%26amp%3Bgt%3B%26lt%3Bdiv%20style%3D%26quot%3B%26quot%3B%26gt%3Bdocker%26lt%3B%2Fdiv%26gt%3B%22%20style%3D%22verticalAlign%3Dtop%3Balign%3Dcenter%3BspacingTop%3D8%3BspacingLeft%3D2%3BspacingRight%3D12%3Bshape%3Dcube%3Bsize%3D10%3Bdirection%3Dsouth%3BfontStyle%3D4%3Bhtml%3D1%3BwhiteSpace%3Dwrap%3B%22%20vertex%3D%221%22%20parent%3D%221%22%3E%3CmxGeometry%20x%3D%22470%22%20y%3D%22140%22%20width%3D%22510%22%20height%3D%22300%22%20as%3D%22geometry%22%2F%3E%3C%2FmxCell%3E%3C%2Froot%3E%3C%2FmxGraphModel%3E&lt;/span&gt;&lt;/div&gt;" style="verticalAlign=top;align=center;spacingTop=8;spacingLeft=2;spacingRight=12;shape=cube;size=10;direction=south;fontStyle=4;html=1;whiteSpace=wrap;" vertex="1" parent="hyjtwMe0WPxaoIsdSJ7K-24">
          <mxGeometry x="20" y="220" width="150" height="60" as="geometry" />
        </mxCell>
        <mxCell id="hyjtwMe0WPxaoIsdSJ7K-31" value="" style="html=1;verticalAlign=bottom;endArrow=none;curved=0;rounded=0;endFill=0;" edge="1" parent="hyjtwMe0WPxaoIsdSJ7K-24" source="hyjtwMe0WPxaoIsdSJ7K-16" target="hyjtwMe0WPxaoIsdSJ7K-15">
          <mxGeometry width="80" relative="1" as="geometry">
            <mxPoint x="250" y="100" as="sourcePoint" />
            <mxPoint x="170" y="100" as="targetPoint" />
          </mxGeometry>
        </mxCell>
        <mxCell id="hyjtwMe0WPxaoIsdSJ7K-32" value="" style="html=1;verticalAlign=bottom;endArrow=none;curved=0;rounded=0;endFill=0;" edge="1" parent="hyjtwMe0WPxaoIsdSJ7K-24" source="hyjtwMe0WPxaoIsdSJ7K-16" target="hyjtwMe0WPxaoIsdSJ7K-17">
          <mxGeometry width="80" relative="1" as="geometry">
            <mxPoint x="290" y="100" as="sourcePoint" />
            <mxPoint x="180" y="100" as="targetPoint" />
          </mxGeometry>
        </mxCell>
        <mxCell id="hyjtwMe0WPxaoIsdSJ7K-33" value="" style="html=1;verticalAlign=bottom;endArrow=none;curved=0;rounded=0;endFill=0;" edge="1" parent="hyjtwMe0WPxaoIsdSJ7K-24" source="hyjtwMe0WPxaoIsdSJ7K-21" target="hyjtwMe0WPxaoIsdSJ7K-19">
          <mxGeometry width="80" relative="1" as="geometry">
            <mxPoint x="290" y="123" as="sourcePoint" />
            <mxPoint x="180" y="157" as="targetPoint" />
          </mxGeometry>
        </mxCell>
        <mxCell id="hyjtwMe0WPxaoIsdSJ7K-34" value="" style="html=1;verticalAlign=bottom;endArrow=none;curved=0;rounded=0;endFill=0;" edge="1" parent="hyjtwMe0WPxaoIsdSJ7K-24" source="hyjtwMe0WPxaoIsdSJ7K-15" target="hyjtwMe0WPxaoIsdSJ7K-20">
          <mxGeometry width="80" relative="1" as="geometry">
            <mxPoint x="180" y="237" as="sourcePoint" />
            <mxPoint x="290" y="203" as="targetPoint" />
          </mxGeometry>
        </mxCell>
        <mxCell id="hyjtwMe0WPxaoIsdSJ7K-25" value="&lt;font style=&quot;color: rgb(0, 0, 0);&quot;&gt;&amp;lt;&amp;lt;reverse proxy&amp;gt;&amp;gt;&lt;/font&gt;&lt;div style=&quot;text-align: center;&quot;&gt;&lt;font style=&quot;color: rgb(0, 0, 0);&quot;&gt;&lt;span style=&quot;text-align: start; background-color: transparent;&quot;&gt;NGINX&lt;/span&gt;&lt;span style=&quot;font-family: monospace; font-size: 0px; text-align: start; text-wrap-mode: nowrap; background-color: transparent;&quot;&gt;%3CmxGraphModel%3E%3Croot%3E%3CmxCell%20id%3D%220%22%2F%3E%3CmxCell%20id%3D%221%22%20parent%3D%220%22%2F%3E%3CmxCell%20id%3D%222%22%20value%3D%22%26amp%3Blt%3B%26amp%3Blt%3BV-Host%26amp%3Bgt%3B%26amp%3Bgt%3B%26lt%3Bdiv%20style%3D%26quot%3B%26quot%3B%26gt%3Bdocker%26lt%3B%2Fdiv%26gt%3B%22%20style%3D%22verticalAlign%3Dtop%3Balign%3Dcenter%3BspacingTop%3D8%3BspacingLeft%3D2%3BspacingRight%3D12%3Bshape%3Dcube%3Bsize%3D10%3Bdirection%3Dsouth%3BfontStyle%3D4%3Bhtml%3D1%3BwhiteSpace%3Dwrap%3B%22%20vertex%3D%221%22%20parent%3D%221%22%3E%3CmxGeometry%20x%3D%22470%22%20y%3D%22140%22%20width%3D%22510%22%20height%3D%22300%22%20as%3D%22geometry%22%2F%3E%3C%2FmxCell%3E%3C%2Froot%3E%3C%2FmxGraphModel%3E&lt;/span&gt;&lt;span style=&quot;font-family: monospace; font-size: 0px; text-align: start; text-wrap-mode: nowrap; background-color: transparent;&quot;&gt;%3CmxGraphModel%3E%3Croot%3E%3CmxCell%20id%3D%220%22%2F%3E%3CmxCell%20id%3D%221%22%20parent%3D%220%22%2F%3E%3CmxCell%20id%3D%222%22%20value%3D%22%26amp%3Blt%3B%26amp%3Blt%3Bcontainer%26amp%3Bgt%3B%26amp%3Bgt%3B%26lt%3Bdiv%20style%3D%26quot%3B%26quot%3B%26gt%3Bweb%20server%26lt%3Bspan%20style%3D%26quot%3Bcolor%3A%20rgba(0%2C%200%2C%200%2C%200)%3B%20font-family%3A%20monospace%3B%20font-size%3A%200px%3B%20text-align%3A%20start%3B%20text-wrap-mode%3A%20nowrap%3B%20background-color%3A%20transparent%3B%26quot%3B%26gt%3B%253CmxGraphModel%253E%253Croot%253E%253CmxCell%2520id%253D%25220%2522%252F%253E%253CmxCell%2520id%253D%25221%2522%2520parent%253D%25220%2522%252F%253E%253CmxCell%2520id%253D%25222%2522%2520value%253D%2522%2526amp%253Blt%253B%2526amp%253Blt%253BV-Host%2526amp%253Bgt%253B%2526amp%253Bgt%253B%2526lt%253Bdiv%2520style%253D%2526quot%253B%2526quot%253B%2526gt%253Bdocker%2526lt%253B%252Fdiv%2526gt%253B%2522%2520style%253D%2522verticalAlign%253Dtop%253Balign%253Dcenter%253BspacingTop%253D8%253BspacingLeft%253D2%253BspacingRight%253D12%253Bshape%253Dcube%253Bsize%253D10%253Bdirection%253Dsouth%253BfontStyle%253D4%253Bhtml%253D1%253BwhiteSpace%253Dwrap%253B%2522%2520vertex%253D%25221%2522%2520parent%253D%25221%2522%253E%253CmxGeometry%2520x%253D%2522470%2522%2520y%253D%2522140%2522%2520width%253D%2522510%2522%2520height%253D%2522300%2522%2520as%253D%2522geometry%2522%252F%253E%253C%252FmxCell%253E%253C%252Froot%253E%253C%252FmxGraphModel%253E%26lt%3B%2Fspan%26gt%3B%26lt%3B%2Fdiv%26gt%3B%22%20style%3D%22verticalAlign%3Dtop%3Balign%3Dcenter%3BspacingTop%3D8%3BspacingLeft%3D2%3BspacingRight%3D12%3Bshape%3Dcube%3Bsize%3D10%3Bdirection%3Dsouth%3BfontStyle%3D4%3Bhtml%3D1%3BwhiteSpace%3Dwrap%3B%22%20vertex%3D%221%22%20parent%3D%221%22%3E%3CmxGeometry%20x%3D%22490%22%20y%3D%22200%22%20width%3D%22150%22%20height%3D%2260%22%20as%3D%22geometry%22%2F%3E%3C%2FmxCell%3E%3C%2Froot%3E%3C%2FmxGraphModel%3E&lt;/span&gt;&lt;/font&gt;&lt;/div&gt;" style="verticalAlign=top;align=center;spacingTop=8;spacingLeft=2;spacingRight=12;shape=cube;size=10;direction=south;fontStyle=4;html=1;whiteSpace=wrap;" vertex="1" parent="1">
          <mxGeometry x="240" y="260" width="150" height="60" as="geometry" />
        </mxCell>
        <mxCell id="hyjtwMe0WPxaoIsdSJ7K-30" value="" style="html=1;verticalAlign=bottom;endArrow=none;curved=0;rounded=0;endFill=0;" edge="1" parent="1" source="hyjtwMe0WPxaoIsdSJ7K-15" target="hyjtwMe0WPxaoIsdSJ7K-25">
          <mxGeometry width="80" relative="1" as="geometry">
            <mxPoint x="370" y="380" as="sourcePoint" />
            <mxPoint x="450" y="380" as="targetPoint" />
          </mxGeometry>
        </mxCell>
        <mxCell id="hyjtwMe0WPxaoIsdSJ7K-36" value="Use" style="endArrow=open;endSize=12;dashed=1;html=1;rounded=0;" edge="1" parent="1" source="hyjtwMe0WPxaoIsdSJ7K-12" target="hyjtwMe0WPxaoIsdSJ7K-22">
          <mxGeometry width="160" relative="1" as="geometry">
            <mxPoint x="820" y="290" as="sourcePoint" />
            <mxPoint x="980" y="290" as="targetPoint" />
            <Array as="points">
              <mxPoint x="1100" y="290" />
            </Array>
          </mxGeometry>
        </mxCell>
        <mxCell id="hyjtwMe0WPxaoIsdSJ7K-37" value="" style="html=1;verticalAlign=bottom;endArrow=none;curved=0;rounded=0;endFill=0;" edge="1" parent="1" source="hyjtwMe0WPxaoIsdSJ7K-25" target="hyjtwMe0WPxaoIsdSJ7K-9">
          <mxGeometry width="80" relative="1" as="geometry">
            <mxPoint x="160" y="370" as="sourcePoint" />
            <mxPoint x="80" y="370" as="targetPoint" />
          </mxGeometry>
        </mxCell>
        <mxCell id="hyjtwMe0WPxaoIsdSJ7K-51" value="&amp;lt;&amp;lt;protocols&amp;gt;&amp;gt;&lt;div&gt;http | sse&lt;/div&gt;" style="edgeLabel;html=1;align=center;verticalAlign=middle;resizable=0;points=[];" vertex="1" connectable="0" parent="hyjtwMe0WPxaoIsdSJ7K-37">
          <mxGeometry x="0.2098" y="-2" relative="1" as="geometry">
            <mxPoint x="15" y="-14" as="offset" />
          </mxGeometry>
        </mxCell>
        <mxCell id="hyjtwMe0WPxaoIsdSJ7K-53" value="" style="group" vertex="1" connectable="0" parent="1">
          <mxGeometry x="1640" y="100" width="270" height="150" as="geometry" />
        </mxCell>
        <mxCell id="hyjtwMe0WPxaoIsdSJ7K-13" value="&amp;lt;&amp;lt;Device&amp;gt;&amp;gt;&lt;div style=&quot;&quot;&gt;server&lt;/div&gt;" style="verticalAlign=top;align=center;spacingTop=8;spacingLeft=2;spacingRight=12;shape=cube;size=10;direction=south;fontStyle=4;html=1;whiteSpace=wrap;" vertex="1" parent="hyjtwMe0WPxaoIsdSJ7K-53">
          <mxGeometry width="270" height="150" as="geometry" />
        </mxCell>
        <mxCell id="hyjtwMe0WPxaoIsdSJ7K-14" value="&amp;lt;&amp;lt;service&amp;gt;&amp;gt;&lt;div style=&quot;&quot;&gt;repo registry server (github)&lt;/div&gt;" style="verticalAlign=top;align=center;spacingTop=8;spacingLeft=2;spacingRight=12;shape=cube;size=10;direction=south;fontStyle=4;html=1;whiteSpace=wrap;" vertex="1" parent="hyjtwMe0WPxaoIsdSJ7K-53">
          <mxGeometry x="35" y="60" width="200" height="60" as="geometry" />
        </mxCell>
        <mxCell id="hyjtwMe0WPxaoIsdSJ7K-54" value="" style="group" vertex="1" connectable="0" parent="1">
          <mxGeometry x="1640" y="340" width="270" height="150" as="geometry" />
        </mxCell>
        <mxCell id="hyjtwMe0WPxaoIsdSJ7K-55" value="&amp;lt;&amp;lt;Device&amp;gt;&amp;gt;&lt;div style=&quot;&quot;&gt;server&lt;/div&gt;" style="verticalAlign=top;align=center;spacingTop=8;spacingLeft=2;spacingRight=12;shape=cube;size=10;direction=south;fontStyle=4;html=1;whiteSpace=wrap;" vertex="1" parent="hyjtwMe0WPxaoIsdSJ7K-54">
          <mxGeometry width="270" height="150" as="geometry" />
        </mxCell>
        <mxCell id="hyjtwMe0WPxaoIsdSJ7K-56" value="&amp;lt;&amp;lt;service&amp;gt;&amp;gt;&lt;div style=&quot;&quot;&gt;CI/CD server&lt;/div&gt;" style="verticalAlign=top;align=center;spacingTop=8;spacingLeft=2;spacingRight=12;shape=cube;size=10;direction=south;fontStyle=4;html=1;whiteSpace=wrap;" vertex="1" parent="hyjtwMe0WPxaoIsdSJ7K-54">
          <mxGeometry x="35" y="60" width="200" height="60" as="geometry" />
        </mxCell>
        <mxCell id="hyjtwMe0WPxaoIsdSJ7K-60" value="&lt;div&gt;Note:&lt;/div&gt;&lt;div&gt;The CI/CD server automates building, testing, and deploying applications, ensuring faster and reliable software releases.&lt;/div&gt;&lt;div&gt;some common options :&lt;/div&gt;&lt;div&gt;jenkinse , github actions&lt;/div&gt;" style="shape=note;size=20;whiteSpace=wrap;html=1;" vertex="1" parent="1">
          <mxGeometry x="1670" y="540" width="210" height="120" as="geometry" />
        </mxCell>
        <mxCell id="hyjtwMe0WPxaoIsdSJ7K-61" value="" style="html=1;verticalAlign=bottom;endArrow=none;curved=0;rounded=0;endFill=0;dashed=1;" edge="1" parent="1" source="hyjtwMe0WPxaoIsdSJ7K-60" target="hyjtwMe0WPxaoIsdSJ7K-55">
          <mxGeometry width="80" relative="1" as="geometry">
            <mxPoint x="2090" y="422" as="sourcePoint" />
            <mxPoint x="2000" y="440" as="targetPoint" />
          </mxGeometry>
        </mxCell>
        <mxCell id="hyjtwMe0WPxaoIsdSJ7K-62" value="" style="html=1;verticalAlign=bottom;endArrow=none;curved=0;rounded=0;endFill=0;" edge="1" parent="1" source="hyjtwMe0WPxaoIsdSJ7K-11" target="hyjtwMe0WPxaoIsdSJ7K-13">
          <mxGeometry width="80" relative="1" as="geometry">
            <mxPoint x="1850" y="260" as="sourcePoint" />
            <mxPoint x="1770" y="260" as="targetPoint" />
          </mxGeometry>
        </mxCell>
        <mxCell id="hyjtwMe0WPxaoIsdSJ7K-65" value="pull&amp;nbsp; thesource code in deployment step" style="edgeLabel;html=1;align=center;verticalAlign=middle;resizable=0;points=[];" vertex="1" connectable="0" parent="hyjtwMe0WPxaoIsdSJ7K-62">
          <mxGeometry x="-0.0381" y="-2" relative="1" as="geometry">
            <mxPoint as="offset" />
          </mxGeometry>
        </mxCell>
        <mxCell id="hyjtwMe0WPxaoIsdSJ7K-63" value="" style="html=1;verticalAlign=bottom;endArrow=none;curved=0;rounded=0;endFill=0;" edge="1" parent="1" source="hyjtwMe0WPxaoIsdSJ7K-11" target="hyjtwMe0WPxaoIsdSJ7K-55">
          <mxGeometry width="80" relative="1" as="geometry">
            <mxPoint x="1690" y="395" as="sourcePoint" />
            <mxPoint x="1690" y="305" as="targetPoint" />
          </mxGeometry>
        </mxCell>
        <mxCell id="hyjtwMe0WPxaoIsdSJ7K-64" value="&lt;div&gt;&amp;lt;&amp;lt;protocol&amp;gt;&amp;gt;&lt;/div&gt;&lt;div&gt;ssh&lt;/div&gt;" style="edgeLabel;html=1;align=center;verticalAlign=middle;resizable=0;points=[];" vertex="1" connectable="0" parent="hyjtwMe0WPxaoIsdSJ7K-63">
          <mxGeometry x="-0.1264" y="1" relative="1" as="geometry">
            <mxPoint x="1" y="-3" as="offset" />
          </mxGeometry>
        </mxCell>
        <mxCell id="hyjtwMe0WPxaoIsdSJ7K-67" value="" style="group" vertex="1" connectable="0" parent="1">
          <mxGeometry x="-460" y="70" width="490" height="220" as="geometry" />
        </mxCell>
        <mxCell id="hyjtwMe0WPxaoIsdSJ7K-9" value="&amp;lt;&amp;lt;Device&amp;gt;&amp;gt;&lt;div style=&quot;&quot;&gt;&lt;span style=&quot;background-color: transparent; color: light-dark(rgb(0, 0, 0), rgb(255, 255, 255));&quot;&gt;client mobile&lt;/span&gt;&lt;/div&gt;" style="verticalAlign=top;align=center;spacingTop=8;spacingLeft=2;spacingRight=12;shape=cube;size=10;direction=south;fontStyle=4;html=1;whiteSpace=wrap;" vertex="1" parent="hyjtwMe0WPxaoIsdSJ7K-67">
          <mxGeometry width="490" height="220" as="geometry" />
        </mxCell>
        <mxCell id="hyjtwMe0WPxaoIsdSJ7K-44" value="&amp;lt;&amp;lt;executable&amp;gt;&amp;gt;&lt;div&gt;moile app&lt;/div&gt;" style="shape=module;align=left;spacingLeft=20;align=center;verticalAlign=top;whiteSpace=wrap;html=1;" vertex="1" parent="hyjtwMe0WPxaoIsdSJ7K-67">
          <mxGeometry x="260" y="90" width="160" height="50" as="geometry" />
        </mxCell>
        <mxCell id="hyjtwMe0WPxaoIsdSJ7K-45" value="&amp;lt;&amp;lt;lib&amp;gt;&amp;gt;&lt;div&gt;spach to text native model&lt;/div&gt;" style="shape=module;align=left;spacingLeft=20;align=center;verticalAlign=top;whiteSpace=wrap;html=1;" vertex="1" parent="hyjtwMe0WPxaoIsdSJ7K-67">
          <mxGeometry x="10" y="70" width="160" height="50" as="geometry" />
        </mxCell>
        <mxCell id="hyjtwMe0WPxaoIsdSJ7K-46" value="&amp;lt;&amp;lt;lib&amp;gt;&amp;gt;&lt;div&gt;text to speach native model&lt;/div&gt;" style="shape=module;align=left;spacingLeft=20;align=center;verticalAlign=top;whiteSpace=wrap;html=1;" vertex="1" parent="hyjtwMe0WPxaoIsdSJ7K-67">
          <mxGeometry x="10" y="140" width="160" height="50" as="geometry" />
        </mxCell>
        <mxCell id="hyjtwMe0WPxaoIsdSJ7K-49" value="" style="html=1;verticalAlign=bottom;endArrow=none;curved=0;rounded=0;endFill=0;dashed=1;" edge="1" parent="hyjtwMe0WPxaoIsdSJ7K-67" source="hyjtwMe0WPxaoIsdSJ7K-44" target="hyjtwMe0WPxaoIsdSJ7K-46">
          <mxGeometry width="80" relative="1" as="geometry">
            <mxPoint x="300" y="180" as="sourcePoint" />
            <mxPoint x="220" y="180" as="targetPoint" />
          </mxGeometry>
        </mxCell>
        <mxCell id="hyjtwMe0WPxaoIsdSJ7K-50" value="" style="html=1;verticalAlign=bottom;endArrow=none;curved=0;rounded=0;endFill=0;dashed=1;" edge="1" parent="hyjtwMe0WPxaoIsdSJ7K-67" source="hyjtwMe0WPxaoIsdSJ7K-44" target="hyjtwMe0WPxaoIsdSJ7K-45">
          <mxGeometry width="80" relative="1" as="geometry">
            <mxPoint x="280" y="79" as="sourcePoint" />
            <mxPoint x="140" y="111" as="targetPoint" />
          </mxGeometry>
        </mxCell>
        <mxCell id="hyjtwMe0WPxaoIsdSJ7K-68" value="" style="group" vertex="1" connectable="0" parent="1">
          <mxGeometry x="-390" y="380" width="490" height="220" as="geometry" />
        </mxCell>
        <mxCell id="hyjtwMe0WPxaoIsdSJ7K-69" value="&amp;lt;&amp;lt;Device&amp;gt;&amp;gt;&lt;div style=&quot;&quot;&gt;&lt;span style=&quot;background-color: transparent; color: light-dark(rgb(0, 0, 0), rgb(255, 255, 255));&quot;&gt;client computer&lt;/span&gt;&lt;/div&gt;" style="verticalAlign=top;align=center;spacingTop=8;spacingLeft=2;spacingRight=12;shape=cube;size=10;direction=south;fontStyle=4;html=1;whiteSpace=wrap;" vertex="1" parent="hyjtwMe0WPxaoIsdSJ7K-68">
          <mxGeometry x="50" y="-10" width="280" height="130" as="geometry" />
        </mxCell>
        <mxCell id="hyjtwMe0WPxaoIsdSJ7K-78" value="«ienviroment»&lt;br&gt;&lt;b&gt;browser&lt;/b&gt;" style="html=1;whiteSpace=wrap;" vertex="1" parent="hyjtwMe0WPxaoIsdSJ7K-68">
          <mxGeometry x="135" y="50" width="110" height="50" as="geometry" />
        </mxCell>
        <mxCell id="hyjtwMe0WPxaoIsdSJ7K-79" value="" style="html=1;verticalAlign=bottom;endArrow=none;curved=0;rounded=0;endFill=0;" edge="1" parent="1" source="hyjtwMe0WPxaoIsdSJ7K-25" target="hyjtwMe0WPxaoIsdSJ7K-69">
          <mxGeometry width="80" relative="1" as="geometry">
            <mxPoint x="230" y="237" as="sourcePoint" />
            <mxPoint x="-10" y="219" as="targetPoint" />
          </mxGeometry>
        </mxCell>
        <mxCell id="hyjtwMe0WPxaoIsdSJ7K-80" value="&amp;lt;&amp;lt;protocols&amp;gt;&amp;gt;&lt;div&gt;http | sse&lt;/div&gt;" style="edgeLabel;html=1;align=center;verticalAlign=middle;resizable=0;points=[];" vertex="1" connectable="0" parent="hyjtwMe0WPxaoIsdSJ7K-79">
          <mxGeometry x="0.2098" y="-2" relative="1" as="geometry">
            <mxPoint x="15" y="-14" as="offset" />
          </mxGeometry>
        </mxCell>
        <mxCell id="hyjtwMe0WPxaoIsdSJ7K-81" value="&lt;strong&gt;Note:&lt;/strong&gt;&lt;br&gt;Docker volumes provide persistent storage for containers, allowing data to persist across container restarts. They are used to share data between the host and containers or between multiple containers." style="shape=note;size=20;whiteSpace=wrap;html=1;" vertex="1" parent="1">
          <mxGeometry x="1010" y="500" width="210" height="120" as="geometry" />
        </mxCell>
        <mxCell id="hyjtwMe0WPxaoIsdSJ7K-82" value="" style="html=1;verticalAlign=bottom;endArrow=none;curved=0;rounded=0;endFill=0;dashed=1;" edge="1" parent="1" source="hyjtwMe0WPxaoIsdSJ7K-22" target="hyjtwMe0WPxaoIsdSJ7K-81">
          <mxGeometry width="80" relative="1" as="geometry">
            <mxPoint x="1800" y="367" as="sourcePoint" />
            <mxPoint x="1760" y="373" as="targetPoint" />
          </mxGeometry>
        </mxCell>
        <mxCell id="hyjtwMe0WPxaoIsdSJ7K-83" value="" style="html=1;verticalAlign=bottom;endArrow=none;curved=0;rounded=0;endFill=0;" edge="1" parent="1" source="hyjtwMe0WPxaoIsdSJ7K-21" target="hyjtwMe0WPxaoIsdSJ7K-25">
          <mxGeometry width="80" relative="1" as="geometry">
            <mxPoint x="500" y="258" as="sourcePoint" />
            <mxPoint x="400" y="282" as="targetPoint" />
          </mxGeometry>
        </mxCell>
        <mxCell id="hyjtwMe0WPxaoIsdSJ7K-84" value="" style="group" vertex="1" connectable="0" parent="1">
          <mxGeometry x="1640" y="-150" width="270" height="150" as="geometry" />
        </mxCell>
        <mxCell id="hyjtwMe0WPxaoIsdSJ7K-88" value="" style="group" vertex="1" connectable="0" parent="hyjtwMe0WPxaoIsdSJ7K-84">
          <mxGeometry width="270" height="150" as="geometry" />
        </mxCell>
        <mxCell id="hyjtwMe0WPxaoIsdSJ7K-85" value="&amp;lt;&amp;lt;Device&amp;gt;&amp;gt;&lt;div style=&quot;&quot;&gt;developer device&lt;/div&gt;" style="verticalAlign=top;align=center;spacingTop=8;spacingLeft=2;spacingRight=12;shape=cube;size=10;direction=south;fontStyle=4;html=1;whiteSpace=wrap;" vertex="1" parent="hyjtwMe0WPxaoIsdSJ7K-88">
          <mxGeometry width="270" height="150" as="geometry" />
        </mxCell>
        <mxCell id="hyjtwMe0WPxaoIsdSJ7K-87" value="«repository»&lt;br&gt;&lt;b&gt;source code&lt;/b&gt;" style="html=1;whiteSpace=wrap;" vertex="1" parent="hyjtwMe0WPxaoIsdSJ7K-88">
          <mxGeometry x="70" y="70" width="110" height="50" as="geometry" />
        </mxCell>
        <mxCell id="hyjtwMe0WPxaoIsdSJ7K-89" value="" style="html=1;verticalAlign=bottom;endArrow=none;curved=0;rounded=0;endFill=0;startArrow=classic;startFill=1;" edge="1" parent="1" source="hyjtwMe0WPxaoIsdSJ7K-13" target="hyjtwMe0WPxaoIsdSJ7K-85">
          <mxGeometry width="80" relative="1" as="geometry">
            <mxPoint x="2000" y="496" as="sourcePoint" />
            <mxPoint x="2250" y="530" as="targetPoint" />
          </mxGeometry>
        </mxCell>
        <mxCell id="hyjtwMe0WPxaoIsdSJ7K-90" value="push code to the repository" style="edgeLabel;html=1;align=center;verticalAlign=middle;resizable=0;points=[];" vertex="1" connectable="0" parent="hyjtwMe0WPxaoIsdSJ7K-89">
          <mxGeometry x="-0.1264" y="1" relative="1" as="geometry">
            <mxPoint x="1" y="-3" as="offset" />
          </mxGeometry>
        </mxCell>
        <mxCell id="hyjtwMe0WPxaoIsdSJ7K-91" value="" style="html=1;verticalAlign=bottom;endArrow=classic;curved=0;rounded=0;endFill=1;startArrow=none;startFill=0;" edge="1" parent="1" source="hyjtwMe0WPxaoIsdSJ7K-13" target="hyjtwMe0WPxaoIsdSJ7K-55">
          <mxGeometry width="80" relative="1" as="geometry">
            <mxPoint x="1920" y="208" as="sourcePoint" />
            <mxPoint x="2180" y="252" as="targetPoint" />
          </mxGeometry>
        </mxCell>
        <mxCell id="hyjtwMe0WPxaoIsdSJ7K-92" value="Pulls code from the repository." style="edgeLabel;html=1;align=center;verticalAlign=middle;resizable=0;points=[];" vertex="1" connectable="0" parent="hyjtwMe0WPxaoIsdSJ7K-91">
          <mxGeometry x="-0.1264" y="1" relative="1" as="geometry">
            <mxPoint x="1" y="-3" as="offset" />
          </mxGeometry>
        </mxCell>
        <mxCell id="hyjtwMe0WPxaoIsdSJ7K-93" value="Deploys application containers to the server." style="text;html=1;align=center;verticalAlign=middle;resizable=0;points=[];autosize=1;strokeColor=none;fillColor=none;rotation=5;" vertex="1" parent="1">
          <mxGeometry x="1300" y="370" width="260" height="30" as="geometry" />
        </mxCell>
      </root>
    </mxGraphModel>
  </diagram>
</mxfile>
